<svg xmlns="http://www.w3.org/2000/svg" viewBox="0 0 16 16">
  <g>
    <path d="M11.745,9.641l.169.483a.875.875,0,0,1-.392,1.047l-.75.428a.876.876,0,0,1-1.1-.187l-.3-.347-.086.45a.874.874,0,0,1-.859.711H7.569a.876.876,0,0,1-.86-.711l-.086-.45-.3.347a.875.875,0,0,1-1.1.187l-.75-.428a.875.875,0,0,1-.393-1.047l.169-.483L1,11.5l7,4,7-4Z"/>
    <polygon points="10 6 7 4.268 7 7.732 10 6"/>
    <path d="M13.425,6.357V5.494L12.35,5.289a4.339,4.339,0,0,0-.264-.989l.828-.714-.428-.75L11.45,3.2a4.455,4.455,0,0,0-.723-.723l.362-1.037-.75-.427-.715.826a4.332,4.332,0,0,0-.987-.262L8.432.5H7.568l-.2,1.077a4.332,4.332,0,0,0-.987.262l-.715-.828-.75.429.361,1.037A4.409,4.409,0,0,0,4.55,3.2L3.514,2.838l-.428.75.828.712a4.339,4.339,0,0,0-.264.989l-1.077.205v.863l1.077.205a4.331,4.331,0,0,0,.264.988l-.828.714.428.75L4.55,8.65a4.409,4.409,0,0,0,.723.722l-.362,1.037.75.428.715-.827a4.332,4.332,0,0,0,.987.262l.2,1.077h.864l.205-1.077a4.332,4.332,0,0,0,.987-.262l.715.827.75-.428-.362-1.037a4.409,4.409,0,0,0,.723-.722l1.037.361.428-.75-.829-.711a4.387,4.387,0,0,0,.263-.987ZM8,9.27a3.35,3.35,0,1,1,3.35-3.35A3.35,3.35,0,0,1,8,9.27Z"/>
  </g>
</svg>
