<svg xmlns="http://www.w3.org/2000/svg" viewBox="0 0 16 16">
  <title>icon_service</title>
  <g>
    <path d="M11.745,9.641l.169.483a.875.875,0,0,1-.392,1.047l-.75.428a.876.876,0,0,1-1.1-.187l-.3-.347-.086.45a.874.874,0,0,1-.859.711H7.569a.876.876,0,0,1-.86-.711l-.086-.45-.3.347a.875.875,0,0,1-1.1.187l-.75-.428a.875.875,0,0,1-.393-1.047l.169-.483L1,11.5l7,4,7-4Z"/>
    <path d="M13.425,6.357V5.494L12.35,5.288a4.395,4.395,0,0,0-.263-.988l.827-.714-.428-.75L11.45,3.2a4.455,4.455,0,0,0-.723-.723l.362-1.036-.75-.428-.715.826a4.332,4.332,0,0,0-.987-.262L8.432.5H7.569L7.363,1.577a4.332,4.332,0,0,0-.987.262l-.715-.827-.75.427.361,1.038A4.409,4.409,0,0,0,4.55,3.2L3.514,2.838l-.428.75.828.712a4.345,4.345,0,0,0-.264.988l-1.077.206v.863l1.077.205a4.331,4.331,0,0,0,.264.988l-.828.714.428.75L4.55,8.65a4.409,4.409,0,0,0,.723.722l-.362,1.037.75.428.715-.827a4.332,4.332,0,0,0,.987.262l.206,1.077h.863l.205-1.077a4.332,4.332,0,0,0,.987-.262l.715.827.75-.428-.361-1.037a4.442,4.442,0,0,0,.722-.722l1.037.361.428-.75-.828-.711a4.438,4.438,0,0,0,.262-.987ZM8,2.573a3.35,3.35,0,0,1,3.323,2.934h-2.6A.84.84,0,0,1,8,5.088L6.7,2.838A3.354,3.354,0,0,1,8,2.573ZM4.65,5.924A3.344,3.344,0,0,1,5.978,3.256l1.3,2.25a.837.837,0,0,1,0,.838l-1.3,2.25A3.343,3.343,0,0,1,4.65,5.925ZM8,9.274a3.354,3.354,0,0,1-1.3-.262L8,6.762a.836.836,0,0,1,.726-.419h2.6A3.349,3.349,0,0,1,8,9.278Z"/>
  </g>
</svg>
