<svg xmlns="http://www.w3.org/2000/svg" viewBox="0 0 16 16">
  <title>icon_daemonset</title>
  <g>
    <path d="M11.5,2A2.5,2.5,0,0,1,14,4.5a2.471,2.471,0,0,1-.29,1.136l-.2.377.137.4A6.517,6.517,0,1,1,9.584,2.348l.4.137.377-.195A2.471,2.471,0,0,1,11.5,2m0-1a3.462,3.462,0,0,0-1.6.4A7.518,7.518,0,1,0,14.6,6.1,3.462,3.462,0,0,0,15,4.5,3.5,3.5,0,0,0,11.5,1Z"/>
    <g>
      <polygon points="7.5 5.5 7.5 8.5 10.5 8.5 7.5 8.5 7.5 11.5 7.5 5.5" fill="#fff"/>
      <polygon points="8 5 7 5 7 8 4 8 4 9 7 9 7 12 8 12 8 9 11 9 11 8 8 8 8 5 8 5"/>
    </g>
  </g>
</svg>
