<svg xmlns="http://www.w3.org/2000/svg" viewBox="0 0 16 16">
  <g>
    <polygon points="11 3 6 3 6 4 11 4 11 3 11 3"/>
    <polygon points="11 5 6 5 6 6 11 6 11 5 11 5"/>
    <polygon points="11 7 6 7 6 8 11 8 11 7 11 7"/>
    <polygon points="10 9 6 9 6 10 10 10 10 9 10 9"/>
    <path d="M14,12V2.5A2.5,2.5,0,0,0,11.5,0H2A2,2,0,0,0,0,2V3.5A.5.5,0,0,0,.5,4H3v9.5A2.5,2.5,0,0,0,5.5,16h8A2.5,2.5,0,0,0,16,13.5v-1a.5.5,0,0,0-.5-.5ZM1,3V2A1,1,0,0,1,3,2V3ZM7,13.5a1.5,1.5,0,0,1-3,0V2a1.993,1.993,0,0,0-.268-1H11.5A1.5,1.5,0,0,1,13,2.5V12H7.5a.5.5,0,0,0-.5.5Zm8,0A1.5,1.5,0,0,1,13.5,15h-6A2.491,2.491,0,0,0,8,13.5V13h7Z"/>
  </g>
</svg>
