<svg xmlns="http://www.w3.org/2000/svg" viewBox="0 0 16 16">
  <path d="M8,.5A7.5,7.5,0,1,0,15.5,8,7.5,7.5,0,0,0,8,.5ZM14.5,8a6.428,6.428,0,0,1-.336,2h-3.31A13.716,13.716,0,0,0,11,8a13.716,13.716,0,0,0-.146-2h3.31A6.428,6.428,0,0,1,14.5,8ZM1.5,8a6.428,6.428,0,0,1,.336-2h3.31a13.772,13.772,0,0,0,0,4H1.836A6.428,6.428,0,0,1,1.5,8ZM6,8a12.951,12.951,0,0,1,.154-2H9.846A12.951,12.951,0,0,1,10,8a12.951,12.951,0,0,1-.154,2H6.154A12.951,12.951,0,0,1,6,8Zm7.74-3H10.661A7.968,7.968,0,0,0,9.076,1.6,6.5,6.5,0,0,1,13.74,5ZM8,1.925A5.978,5.978,0,0,1,9.643,5H6.357A5.96,5.96,0,0,1,8,1.925ZM6.924,1.6A7.968,7.968,0,0,0,5.339,5H2.26A6.5,6.5,0,0,1,6.924,1.6ZM2.26,11H5.339a7.979,7.979,0,0,0,1.586,3.4A6.506,6.506,0,0,1,2.26,11Zm4.1,0H9.643A5.975,5.975,0,0,1,8,14.076,5.975,5.975,0,0,1,6.357,11ZM9.08,14.4A8,8,0,0,0,10.662,11H13.74A6.5,6.5,0,0,1,9.08,14.4Z"/>
</svg>
