<svg xmlns="http://www.w3.org/2000/svg" viewBox="0 0 16 16">
  <g>
    <path d="M8,9C4.653,9,2.328,8.182,1.078,7.075A1.352,1.352,0,0,0,1,7.5v1c0,1.657,3.134,3,7,3s7-1.343,7-3v-1a1.352,1.352,0,0,0-.078-.425C13.672,8.182,11.347,9,8,9Z"/>
    <path d="M8,12.5c-3.347,0-5.672-.818-6.922-1.925A1.352,1.352,0,0,0,1,11v1c0,1.657,3.134,3,7,3s7-1.343,7-3V11a1.352,1.352,0,0,0-.078-.425C13.672,11.682,11.347,12.5,8,12.5Z"/>
    <path d="M15,4c0-1.657-3.134-3-7-3S1,2.343,1,4V5C1,6.657,4.134,8,8,8s7-1.343,7-3Z"/>
  </g>
</svg>
