<svg xmlns="http://www.w3.org/2000/svg" viewBox="0 0 16 16">
  <g>
    <path d="M8,.5A7.5,7.5,0,1,0,15.5,8,7.5,7.5,0,0,0,8,.5ZM8,2.76A.5.5,0,0,0,8.479,2.4l.258-.859a6.507,6.507,0,0,1,5.718,5.718l-.859.258a.5.5,0,0,0,0,.958l.859.258a6.508,6.508,0,0,1-5.718,5.718L8.479,13.6a.5.5,0,0,0-.958,0l-.258.859A6.508,6.508,0,0,1,1.545,8.737L2.4,8.479a.5.5,0,0,0,0-.958l-.859-.258A6.507,6.507,0,0,1,7.263,1.545l.258.859A.5.5,0,0,0,8,2.76Z"/>
    <path d="M10.007,5.993,8.669,8.669,5.993,10.007,7.331,7.331l2.676-1.338m1.678-1.928a.251.251,0,0,0-.113.028L6.809,6.474a.754.754,0,0,0-.335.335L4.093,11.572a.248.248,0,0,0,.335.335L9.191,9.526a.754.754,0,0,0,.335-.335l2.381-4.763a.251.251,0,0,0-.222-.363Z"/>
  </g>
</svg>
