<svg xmlns="http://www.w3.org/2000/svg" viewBox="0 0 16 16">
  <g>
    <g>
      <path d="M14,15H2V1h9V0H2A1,1,0,0,0,1,1V15a1,1,0,0,0,1,1H14a1,1,0,0,0,1-1V4H14Z"/>
      <path d="M15,3H13a1,1,0,0,1-1-1V0Z"/>
    </g>
    <g>
      <path d="M8,7V4H5V5H6.1A3.969,3.969,0,0,0,6,11.947a.5.5,0,1,0,.5-.864A2.97,2.97,0,0,1,5,8.5,3.009,3.009,0,0,1,7,5.685V7Z"/>
      <path d="M12,8.5a4.011,4.011,0,0,0-2-3.447.5.5,0,1,0-.5.864A2.97,2.97,0,0,1,11,8.5a3.009,3.009,0,0,1-2,2.815V10H8v3h3V12H9.9A4.015,4.015,0,0,0,12,8.5Z"/>
    </g>
  </g>
</svg>
