<svg xmlns="http://www.w3.org/2000/svg" viewBox="0 0 16 16">
  <g>
    <circle cx="8" cy="1.67" r="1.5"/>
    <circle cx="13.207" cy="4.178" r="1.5"/>
    <circle cx="14.493" cy="9.812" r="1.5"/>
    <circle cx="10.889" cy="14.33" r="1.5"/>
    <circle cx="5.111" cy="14.33" r="1.5"/>
    <circle cx="1.507" cy="9.812" r="1.5"/>
    <circle cx="2.793" cy="4.178" r="1.5"/>
    <path d="M7.222,4.64a.9.9,0,0,1-.42,1.2h0a.9.9,0,1,1,.421-1.2Z"/>
    <circle cx="9.589" cy="5.03" r="0.9"/>
    <circle cx="11.57" cy="7.515" r="0.9"/>
    <circle cx="10.863" cy="10.613" r="0.9"/>
    <circle cx="8" cy="11.991" r="0.9"/>
    <circle cx="5.137" cy="10.613" r="0.9"/>
    <circle cx="4.43" cy="7.515" r="0.9"/>
    <path d="M9.4,8.33A1.4,1.4,0,1,1,8,6.93,1.4,1.4,0,0,1,9.4,8.33Z"/>
  </g>
</svg>
