<svg xmlns="http://www.w3.org/2000/svg" viewBox="0 0 16 16">
  <g>
    <path d="M8,12c-2.685,0-5.508-.534-6.976-1.67A.9.9,0,0,0,1,10.5v2C1,13.881,4.134,15,8,15s7-1.119,7-2.5v-2a.9.9,0,0,0-.024-.17C13.508,11.466,10.685,12,8,12Z"/>
    <path d="M8,8C5.315,8,2.492,7.466,1.024,6.33A.9.9,0,0,0,1,6.5v2C1,9.881,4.134,11,8,11s7-1.119,7-2.5v-2a.9.9,0,0,0-.024-.17C13.508,7.466,10.685,8,8,8Z"/>
    <path d="M8,1C4.134,1,1,2.119,1,3.5v1C1,5.881,4.134,7,8,7s7-1.119,7-2.5v-1C15,2.119,11.866,1,8,1Z"/>
  </g>
</svg>
