<svg xmlns="http://www.w3.org/2000/svg" viewBox="0 0 16 16">
  <g>
    <path d="M11.586,1H4.414a1,1,0,0,0-.707.293L2,3H14L12.293,1.293A1,1,0,0,0,11.586,1Z"/>
    <path d="M14,4H2A1,1,0,0,0,1,5V6A1,1,0,0,0,2,7H14a1,1,0,0,0,1-1V5A1,1,0,0,0,14,4ZM2.5,6A.5.5,0,1,1,3,5.5.5.5,0,0,1,2.5,6Zm2-.1a.4.4,0,1,1,.4-.4A.4.4,0,0,1,4.5,5.9Zm2-.1a.3.3,0,1,1,.3-.3A.3.3,0,0,1,6.5,5.8Z"/>
    <path d="M14,8H2A1,1,0,0,0,1,9v1a1,1,0,0,0,1,1H14a1,1,0,0,0,1-1V9A1,1,0,0,0,14,8ZM2.5,10A.5.5,0,1,1,3,9.5.5.5,0,0,1,2.5,10Zm2-.1a.4.4,0,1,1,.4-.4A.4.4,0,0,1,4.5,9.9Zm2-.1a.3.3,0,1,1,.3-.3A.3.3,0,0,1,6.5,9.8Z"/>
    <path d="M14,12H2a1,1,0,0,0-1,1v1a1,1,0,0,0,1,1H14a1,1,0,0,0,1-1V13A1,1,0,0,0,14,12ZM2.5,14a.5.5,0,1,1,.5-.5A.5.5,0,0,1,2.5,14Zm2-.1a.4.4,0,1,1,.4-.4A.4.4,0,0,1,4.5,13.9Zm2-.1a.3.3,0,1,1,.3-.3A.3.3,0,0,1,6.5,13.8Z"/>
  </g>
</svg>
