<svg xmlns="http://www.w3.org/2000/svg" viewBox="0 0 36 36">
  <g>
    <path d="M33.571,23.458a18.165,18.165,0,0,0-10.6-4.138,10.511,10.511,0,0,1-1.1,1.124,21.293,21.293,0,0,1,5.411,2.8,15.143,15.143,0,0,1,4.37,2.525A3.708,3.708,0,0,1,33,28.629v.019a.352.352,0,0,1-.352.352H31.623A9.787,9.787,0,0,1,32,31.648c0,.119-.011.235-.018.352h.666A3.356,3.356,0,0,0,36,28.648v-.019A6.7,6.7,0,0,0,33.571,23.458Z"/>
    <path d="M25.648,35H4.352A3.356,3.356,0,0,1,1,31.648a6.712,6.712,0,0,1,2.429-5.19,18.105,18.105,0,0,1,23.142,0A6.7,6.7,0,0,1,29,31.629v.019A3.356,3.356,0,0,1,25.648,35ZM15,25.278a15.151,15.151,0,0,0-9.655,3.489A3.71,3.71,0,0,0,4,31.629.356.356,0,0,0,4.352,32h21.3A.352.352,0,0,0,26,31.648v-.019a3.708,3.708,0,0,0-1.346-2.862A15.147,15.147,0,0,0,15,25.278Z"/>
    <path d="M15,20.019A7.519,7.519,0,1,1,22.519,12.5,7.528,7.528,0,0,1,15,20.019ZM15,7.981A4.519,4.519,0,1,0,19.519,12.5,4.524,4.524,0,0,0,15,7.981Z"/>
    <path d="M22.384,5.02a4.473,4.473,0,0,1,3.125,7.291c0,.064.01.125.01.189a10.385,10.385,0,0,1-.813,4.006A7.511,7.511,0,1,0,18.8,2.7,10.539,10.539,0,0,1,22.384,5.02Z"/>
  </g>
</svg>
