<svg xmlns="http://www.w3.org/2000/svg" viewBox="0 0 36 36">
  <g>
    <path d="M27,10a5,5,0,1,0,5,5A5,5,0,0,0,27,10Zm0,7a2,2,0,1,1,2-2A2,2,0,0,1,27,17Z"/>
    <path d="M34.386,25.54A10.437,10.437,0,0,0,27,22.5a10.608,10.608,0,0,0-1.239.08,10.471,10.471,0,0,1,1.62,2.938,7.449,7.449,0,0,1,4.893,2.153A2.506,2.506,0,0,1,33,29.443V30.5a.5.5,0,0,1-.5.5H27.975a6.455,6.455,0,0,1-1.007,3H32.5A3.5,3.5,0,0,0,36,30.5V29.443A5.524,5.524,0,0,0,34.386,25.54Z"/>
    <path d="M21.689,22.81h0a16.432,16.432,0,0,0-18.378,0A7.5,7.5,0,0,0,0,29.041V30.5A3.5,3.5,0,0,0,3.5,34h18A3.5,3.5,0,0,0,25,30.5V29.041A7.5,7.5,0,0,0,21.689,22.81ZM22,30.5a.5.5,0,0,1-.5.5H3.5a.5.5,0,0,1-.5-.5V29.041A4.513,4.513,0,0,1,4.988,25.3a13.437,13.437,0,0,1,15.024,0A4.513,4.513,0,0,1,22,29.041Z"/>
    <path d="M12.5,4A6.5,6.5,0,1,0,19,10.5,6.5,6.5,0,0,0,12.5,4Zm0,10A3.5,3.5,0,1,1,16,10.5,3.5,3.5,0,0,1,12.5,14Z"/>
  </g>
</svg>
