<svg xmlns="http://www.w3.org/2000/svg" viewBox="0 0 16 16">
  <path d="M8.155,3.43a2.4,2.4,0,0,0,.6,1.088,6.544,6.544,0,0,0-5.089,2.5l-.022,0A3.826,3.826,0,0,0,3.41,6.7,3.857,3.857,0,0,0,.616,5.313a3.884,3.884,0,0,0,.9,2.379A3.709,3.709,0,0,0,1.84,8a3.709,3.709,0,0,0-.32.308,3.884,3.884,0,0,0-.9,2.379A3.857,3.857,0,0,0,3.41,9.305a3.826,3.826,0,0,0,.231-.329l.022,0a6.78,6.78,0,0,0,5.7,2.533c3.094,0,5.655-1.52,6.155-3.513C14.986,5.982,11.435,3.43,8.155,3.43ZM11.5,8.375a.875.875,0,1,1,.875-.875A.875.875,0,0,1,11.5,8.375Z"/>
</svg>
